<svg width="93" height="91" viewBox="0 0 93 91" fill="none" xmlns="http://www.w3.org/2000/svg">
<path fill-rule="evenodd" clip-rule="evenodd" d="M33.5022 1.1142C29.9258 1.63462 23.1542 3.24454 18.4542 4.69097C13.7542 6.13865 7.65097 8.60969 4.89217 10.1809C2.13337 11.7534 -0.0673921 13.724 0.00157789 14.5602C0.0705479 15.3963 0.210995 17.9385 0.315077 20.2086L0.503172 24.3382L10.2217 19.5609C15.5662 16.9326 23.8903 13.9611 28.7182 12.9577C33.5461 11.9531 41.8701 11.1219 47.2147 11.1094L56.9332 11.0882V7.43283C56.9332 5.42355 56.0466 2.89635 54.9631 1.81683C53.6276 0.488961 50.8989 -0.0938544 46.4986 0.0122256C42.926 0.0970896 37.0786 0.593788 33.5022 1.1142ZM65.7112 7.37043C65.7112 11.6798 66.199 12.5846 69.1597 13.7677C71.0557 14.5252 76.6373 17.0399 81.5605 19.3562C86.485 21.6725 90.8589 23.5682 91.279 23.5682C91.7003 23.5682 92.0452 21.056 92.0452 17.9847C92.0452 12.9677 91.6389 12.1915 88.0437 10.3407C85.8416 9.20749 80.0996 6.94736 75.283 5.31623C70.4663 3.68634 66.3432 2.35223 66.1187 2.35223C65.8943 2.35223 65.7112 4.6111 65.7112 7.37043ZM31.8532 16.6368C27.3701 17.5703 20.7515 19.4985 17.145 20.9225C13.5385 22.3464 8.58018 24.7875 6.1261 26.3475C2.0506 28.9396 1.73209 29.5611 2.43558 33.5522C2.85944 35.9546 3.58675 38.3146 4.05324 38.7976C4.51847 39.2793 7.7187 37.9265 11.1659 35.7887C14.6119 33.6521 20.5358 30.7954 24.3292 29.4426C28.5715 27.9287 35.9224 26.7419 43.4276 26.3575L55.6278 25.7335L56.4316 21.4728C56.873 19.1291 56.863 16.8415 56.409 16.3897C55.9551 15.938 52.0777 15.4275 47.794 15.254C43.5091 15.0818 36.3362 15.7033 31.8532 16.6368ZM65.6936 20.7602C65.6848 21.962 65.3525 24.1473 64.9563 25.6187C64.3619 27.8214 64.9989 28.544 68.5615 29.7146C70.9416 30.4971 76.1545 33.093 80.1472 35.4854C84.1387 37.8778 87.5433 39.6849 87.7126 39.5014C87.8819 39.318 88.5879 37.099 89.2826 34.5706C90.3184 30.7916 90.1742 29.6397 88.4725 28.1109C87.3339 27.0863 82.7342 24.5229 78.2512 22.4138C73.7681 20.3047 69.112 18.5775 67.9057 18.5775C66.658 18.5762 65.7037 19.5185 65.6936 20.7602ZM31.9848 36.7758C28.263 37.7717 22.62 40.0094 19.4448 41.7491C16.2685 43.49 12.3585 45.991 10.7559 47.3077L7.84032 49.7026L11.9422 57.3603C14.1981 61.5723 16.7111 65.2739 17.5287 65.5859C18.3451 65.8979 21.6669 64.912 24.9098 63.3944C28.1526 61.8781 33.9611 57.7722 37.8172 54.2703C41.6745 50.7696 46.4247 45.407 48.3734 42.3556C50.3221 39.3043 51.9172 36.3565 51.9172 35.8036C51.9172 35.252 48.954 34.8377 45.3337 34.8826C41.7134 34.9275 35.7055 35.7799 31.9848 36.7758ZM58.0881 43.8307C56.3501 47.5722 51.5673 53.8672 46.9012 58.5534C42.4181 63.0574 35.5249 68.3939 31.5836 70.4131L24.417 74.0835L28.3395 78.1121L32.262 82.1394L38.5784 78.7498C42.052 76.8853 48.8762 71.429 53.7417 66.6242C58.8292 61.601 64.3192 54.6309 66.658 50.2255C68.8963 46.011 70.7272 42.0524 70.7272 41.4284C70.7272 40.8044 68.8537 39.6188 66.5626 38.7951C64.2716 37.9702 62.1109 37.2962 61.7611 37.2962C61.4112 37.2962 59.7572 40.2365 58.0881 43.8307ZM71.0633 51.3412C68.8349 55.6281 64.4108 62.0915 61.2331 65.7045C58.0567 69.3162 51.6977 74.8897 47.1031 78.0884C42.5097 81.287 38.2862 84.2971 37.7181 84.7776C37.1501 85.2581 38.6273 86.8456 41.0011 88.3057C43.3749 89.7659 45.8704 90.9602 46.5488 90.9602C47.226 90.9602 51.5071 88.1535 56.0604 84.7227C60.6137 81.292 67.1884 74.9808 70.6707 70.6977C74.1531 66.4146 78.5534 59.9212 80.4482 56.2696L83.8942 49.6277L80.3755 46.5826C78.4405 44.9065 76.4655 43.5387 75.9865 43.5412C75.5074 43.5437 73.2929 47.0531 71.0633 51.3412Z" fill="white"/>
</svg>
