<svg width="239" height="235" viewBox="0 0 239 235" fill="none" xmlns="http://www.w3.org/2000/svg">
<path fill-rule="evenodd" clip-rule="evenodd" d="M140.669 1.904C139.338 2.951 136.285 7.114 133.886 11.154C131.486 15.194 122.092 30.65 113.01 45.5C103.928 60.35 86.0694 89.6 73.3244 110.5C60.5794 131.4 43.7154 159.075 35.8494 172C27.9834 184.925 16.6244 203.476 10.6054 213.224C4.58738 222.972 -0.182628 231.747 0.00537206 232.724C0.321372 234.365 2.39238 234.52 27.2334 234.767C49.0424 234.983 54.5274 234.767 56.2754 233.621C57.4604 232.845 62.3164 225.75 67.0654 217.855C71.8154 209.96 80.5114 195.625 86.3904 186C92.2694 176.375 101.453 161.3 106.799 152.5C112.145 143.7 122.815 126.15 130.511 113.5C138.207 100.85 150.123 81.275 156.991 70C163.86 58.725 175.406 39.766 182.65 27.869C189.893 15.972 195.82 5.3 195.82 4.154C195.82 3.008 194.95 1.605 193.886 1.035C192.704 0.403004 182.449 0 167.521 0C145.015 0 142.899 0.149999 140.669 1.904ZM184.566 121.25C183.667 121.938 175.869 133.75 167.237 147.5C158.606 161.25 148.759 177 145.355 182.5C141.951 188 133.913 200.895 127.493 211.155C121.073 221.415 115.82 230.437 115.82 231.205C115.82 231.972 116.36 233.14 117.02 233.8C117.893 234.673 125.324 234.996 144.27 234.985C158.597 234.976 170.812 234.639 171.412 234.235C172.013 233.831 181.184 219.55 191.793 202.5C202.401 185.45 214.328 166.325 218.297 160C222.266 153.675 228.507 143.739 232.166 137.92C235.826 132.101 238.82 126.389 238.82 125.227C238.82 124.064 237.82 122.413 236.597 121.557C234.735 120.252 230.47 120 210.289 120C192.559 120 185.771 120.33 184.566 121.25Z" fill="white"/>
</svg>
